<svg width="800" height="800" viewBox="0 0 800 800" fill="none" xmlns="http://www.w3.org/2000/svg">
<circle cx="400" cy="400" r="243.5" stroke="#59A5FF" stroke-width="13"/>
<path d="M643.5 400C643.5 445.622 617.092 487.589 573.049 518.419C529.027 549.234 467.866 568.5 400 568.5C332.134 568.5 270.973 549.234 226.951 518.419C182.908 487.589 156.5 445.622 156.5 400C156.5 354.378 182.908 312.411 226.951 281.581C270.973 250.766 332.134 231.5 400 231.5C467.866 231.5 529.027 250.766 573.049 281.581C617.092 312.411 643.5 354.378 643.5 400Z" stroke="#59A5FF" stroke-width="13"/>
<path d="M643.5 400C643.5 411.444 637.729 423.004 625.888 434.202C614.033 445.413 596.53 455.809 574.363 464.676C530.064 482.395 468.42 493.5 400 493.5C331.58 493.5 269.936 482.395 225.637 464.676C203.47 455.809 185.967 445.413 174.112 434.202C162.271 423.004 156.5 411.444 156.5 400C156.5 388.556 162.271 376.996 174.112 365.798C185.967 354.587 203.47 344.191 225.637 335.324C269.936 317.605 331.58 306.5 400 306.5C468.42 306.5 530.064 317.605 574.363 335.324C596.53 344.191 614.033 354.587 625.888 365.798C637.729 376.996 643.5 388.556 643.5 400Z" stroke="#59A5FF" stroke-width="13"/>
<path d="M400 156.5C445.622 156.5 487.589 182.908 518.419 226.951C549.234 270.973 568.5 332.134 568.5 400C568.5 467.866 549.234 529.027 518.419 573.049C487.589 617.092 445.622 643.5 400 643.5C354.378 643.5 312.411 617.092 281.581 573.049C250.766 529.027 231.5 467.866 231.5 400C231.5 332.134 250.766 270.973 281.581 226.951C312.411 182.908 354.378 156.5 400 156.5Z" stroke="#59A5FF" stroke-width="13"/>
<path d="M400 156.5C411.444 156.5 423.004 162.271 434.202 174.112C445.413 185.967 455.809 203.47 464.676 225.637C482.352 269.828 493.446 331.279 493.5 399.5C493.446 467.721 482.352 529.172 464.676 573.363C455.809 595.53 445.413 613.033 434.202 624.888C423.004 636.729 411.444 642.5 400 642.5C388.556 642.5 376.996 636.729 365.798 624.888C354.587 613.033 344.191 595.53 335.324 573.363C317.648 529.172 306.554 467.721 306.5 399.5C306.554 331.279 317.648 269.828 335.324 225.637C344.191 203.47 354.587 185.967 365.798 174.112C376.996 162.271 388.556 156.5 400 156.5Z" stroke="#59A5FF" stroke-width="13"/>
<mask id="path-6-inside-1" fill="white">
<ellipse cx="590.231" cy="590.899" rx="30" ry="4.5" transform="rotate(-45 590.231 590.899)"/>
</mask>
<path d="M607.202 573.929C605.372 572.099 605.702 569.991 605.725 569.845C605.779 569.496 605.841 569.505 605.599 570.011C605.151 570.953 604.203 572.491 602.656 574.583C599.619 578.692 594.886 584.124 589.171 589.838L597.656 598.324C603.657 592.323 608.817 586.436 612.306 581.715C614.023 579.393 615.496 577.138 616.433 575.172C616.884 574.224 617.38 572.999 617.585 571.672C617.758 570.545 617.957 567.713 615.687 565.443L607.202 573.929ZM589.171 589.838C583.456 595.553 578.024 600.287 573.915 603.324C571.823 604.87 570.286 605.818 569.343 606.267C568.837 606.508 568.829 606.446 569.177 606.393C569.324 606.37 571.431 606.04 573.261 607.87L564.776 616.355C567.045 618.624 569.878 618.426 571.004 618.253C572.332 618.048 573.557 617.552 574.504 617.101C576.47 616.164 578.725 614.691 581.048 612.974C585.768 609.485 591.655 604.325 597.656 598.324L589.171 589.838ZM573.261 607.87C575.091 609.7 574.761 611.807 574.738 611.954C574.684 612.302 574.622 612.294 574.863 611.787C575.312 610.845 576.26 609.308 577.806 607.215C580.843 603.107 585.577 597.674 591.292 591.96L582.807 583.474C576.806 589.475 571.645 595.362 568.156 600.083C566.44 602.405 564.967 604.66 564.03 606.626C563.578 607.574 563.082 608.799 562.878 610.127C562.704 611.253 562.506 614.086 564.776 616.355L573.261 607.87ZM591.292 591.96C597.007 586.245 602.439 581.511 606.548 578.474C608.64 576.928 610.177 575.98 611.12 575.531C611.626 575.29 611.634 575.352 611.286 575.406C611.139 575.428 609.032 575.759 607.202 573.929L615.687 565.443C613.418 563.174 610.585 563.372 609.459 563.546C608.131 563.75 606.906 564.246 605.958 564.698C603.992 565.634 601.738 567.107 599.415 568.824C594.695 572.313 588.808 577.473 582.807 583.474L591.292 591.96Z" fill="#8E59FF" mask="url(#path-6-inside-1)"/>
<path d="M588.336 589.004L565.336 566.004" stroke="#8E59FF" stroke-width="8"/>
<path d="M563.226 527.511C564.179 527.349 564.597 527.447 564.734 527.498C564.784 527.635 564.882 528.053 564.72 529.005C564.485 530.389 563.779 532.303 562.513 534.655C559.999 539.323 555.608 545.109 549.897 550.82C544.186 556.531 538.401 560.922 533.732 563.436C531.38 564.702 529.467 565.407 528.082 565.643C527.13 565.805 526.712 565.707 526.575 565.657C526.525 565.52 526.427 565.101 526.589 564.149C526.824 562.765 527.529 560.851 528.796 558.499C531.31 553.831 535.701 548.045 541.412 542.335C547.123 536.624 552.908 532.232 557.577 529.719C559.928 528.452 561.842 527.747 563.226 527.511Z" stroke="#8E59FF" stroke-width="6"/>
<path d="M540.577 540.5L504.077 504" stroke="#8E59FF" stroke-width="8"/>
<path d="M529.666 602.447C529.667 602.447 529.667 602.45 529.666 602.457C529.666 602.451 529.666 602.447 529.666 602.447ZM528.866 602.991C529.116 602.994 529.319 603.007 529.483 603.024C529.416 603.174 529.325 603.356 529.202 603.574C528.539 604.75 527.272 606.316 525.354 608.17C521.554 611.845 515.693 616.182 508.667 620.238C501.641 624.294 494.955 627.202 489.872 628.656C487.308 629.389 485.318 629.704 483.968 629.69C483.717 629.688 483.514 629.675 483.351 629.658C483.418 629.508 483.508 629.326 483.631 629.107C484.294 627.931 485.562 626.365 487.479 624.511C491.28 620.837 497.141 616.5 504.167 612.444C511.193 608.387 517.879 605.48 522.961 604.026C525.526 603.292 527.516 602.977 528.866 602.991ZM482.76 629.529C482.76 629.529 482.763 629.53 482.769 629.534C482.762 629.531 482.76 629.529 482.76 629.529ZM483.167 630.234C483.167 630.234 483.167 630.231 483.167 630.224C483.168 630.231 483.167 630.234 483.167 630.234ZM530.065 603.148C530.071 603.151 530.074 603.153 530.074 603.153C530.074 603.153 530.071 603.152 530.065 603.148Z" stroke="#8E59FF" stroke-width="6"/>
<path d="M504.189 611.068L485.097 578" stroke="#8E59FF" stroke-width="8"/>
<path d="M627.899 482.649C627.899 482.648 627.901 482.651 627.904 482.657C627.9 482.652 627.899 482.649 627.899 482.649ZM627.477 483.52C627.696 483.397 627.878 483.306 628.028 483.24C628.045 483.403 628.058 483.606 628.06 483.857C628.074 485.206 627.759 487.197 627.026 489.761C625.572 494.844 622.664 501.53 618.608 508.556C614.552 515.582 610.215 521.443 606.54 525.243C604.686 527.16 603.12 528.428 601.945 529.091C601.726 529.214 601.544 529.305 601.394 529.371C601.377 529.208 601.364 529.005 601.361 528.754C601.347 527.405 601.662 525.414 602.396 522.85C603.85 517.768 606.757 511.082 610.814 504.056C614.87 497.03 619.207 491.169 622.881 487.368C624.735 485.451 626.302 484.183 627.477 483.52ZM600.817 529.555C600.817 529.555 600.821 529.555 600.827 529.555C600.821 529.555 600.817 529.555 600.817 529.555ZM601.523 529.963C601.523 529.963 601.521 529.96 601.518 529.954C601.522 529.959 601.523 529.962 601.523 529.963ZM628.594 483.056C628.601 483.056 628.605 483.056 628.604 483.056C628.604 483.056 628.601 483.056 628.594 483.056Z" stroke="#8E59FF" stroke-width="6"/>
<path d="M610.145 502.853L577.077 483.761" stroke="#8E59FF" stroke-width="8"/>
<path d="M284.989 284.594L293.588 293.193" stroke="black" stroke-width="2"/>
<path d="M238.08 264.555C238.078 264.553 238.07 264.545 238.057 264.52C238.043 264.492 238.02 264.437 238 264.341C237.96 264.141 237.944 263.811 238.02 263.319C238.174 262.323 238.659 260.963 239.534 259.303C241.272 256.005 244.333 251.937 248.333 247.938C252.332 243.939 256.4 240.878 259.697 239.139C261.357 238.264 262.718 237.779 263.714 237.625C264.206 237.549 264.536 237.565 264.736 237.606C264.832 237.625 264.887 237.648 264.914 237.662C264.94 237.675 264.948 237.683 264.95 237.685L264.95 237.685L264.95 237.685C264.952 237.687 264.96 237.695 264.973 237.72C264.986 237.748 265.009 237.803 265.029 237.898C265.07 238.098 265.086 238.429 265.01 238.92C264.855 239.916 264.371 241.277 263.496 242.937C261.757 246.234 258.696 250.303 254.697 254.302C250.697 258.301 246.629 261.362 243.332 263.101C241.672 263.976 240.311 264.461 239.315 264.615C238.824 264.691 238.493 264.675 238.293 264.634C238.198 264.615 238.142 264.592 238.115 264.578C238.089 264.565 238.081 264.557 238.08 264.555Z" stroke="black" stroke-width="4"/>
<path d="M261.061 275.515C260.741 275.195 260.556 274.711 260.552 274.043C260.548 273.372 260.727 272.552 261.096 271.63C261.833 269.787 263.289 267.63 265.303 265.616C267.317 263.601 269.475 262.145 271.317 261.408C272.24 261.039 273.06 260.86 273.731 260.864C274.399 260.869 274.883 261.053 275.203 261.373C275.523 261.693 275.707 262.177 275.711 262.845C275.716 263.516 275.536 264.336 275.167 265.258C274.43 267.101 272.974 269.258 270.96 271.272C268.946 273.287 266.789 274.743 264.946 275.48C264.024 275.849 263.203 276.028 262.532 276.024C261.864 276.019 261.38 275.835 261.061 275.515Z" stroke="black"/>
<path d="M278.385 292.839C277.624 292.078 277.489 290.623 278.177 288.685C278.851 286.786 280.264 284.596 282.274 282.586C284.283 280.576 286.474 279.163 288.373 278.489C290.311 277.802 291.766 277.936 292.527 278.697C293.288 279.458 293.422 280.913 292.735 282.851C292.061 284.75 290.647 286.94 288.638 288.95C286.628 290.96 284.438 292.373 282.539 293.047C280.601 293.734 279.146 293.6 278.385 292.839Z" stroke="black"/>
<path d="M251.638 251.243L268.839 268.444" stroke="black" stroke-width="2"/>
<path d="M277.324 290.364C276.662 289.702 276.535 288.416 277.159 286.668C277.769 284.961 279.045 282.986 280.86 281.172C282.674 279.357 284.649 278.081 286.356 277.471C288.103 276.847 289.389 276.974 290.052 277.636C290.715 278.299 290.841 279.585 290.217 281.332C289.607 283.04 288.331 285.014 286.516 286.829C284.702 288.643 282.727 289.92 281.02 290.529C279.273 291.153 277.987 291.027 277.324 290.364Z" stroke="#FF5959" stroke-opacity="0.9"/>
<path d="M278.031 291.071C277.369 290.409 277.242 289.123 277.866 287.376C278.476 285.668 279.752 283.694 281.567 281.879C283.381 280.064 285.356 278.788 287.063 278.178C288.81 277.554 290.097 277.681 290.759 278.343C291.422 279.006 291.548 280.292 290.924 282.039C290.314 283.747 289.038 285.721 287.224 287.536C285.409 289.35 283.434 290.627 281.727 291.237C279.98 291.861 278.694 291.734 278.031 291.071Z" stroke="#FF5959" stroke-opacity="0.9"/>
<path d="M276.617 289.657C275.954 288.995 275.828 287.709 276.452 285.961C277.062 284.254 278.338 282.279 280.153 280.465C281.967 278.65 283.942 277.374 285.649 276.764C287.396 276.14 288.682 276.267 289.345 276.929C290.007 277.592 290.134 278.878 289.51 280.625C288.9 282.332 287.624 284.307 285.809 286.122C283.995 287.936 282.02 289.213 280.313 289.822C278.566 290.446 277.279 290.32 276.617 289.657Z" stroke="#FF5959" stroke-opacity="0.9"/>
<path d="M275.91 288.95C275.247 288.288 275.121 287.001 275.745 285.254C276.355 283.547 277.631 281.572 279.445 279.758C281.26 277.943 283.235 276.667 284.942 276.057C286.689 275.433 287.975 275.56 288.638 276.222C289.3 276.885 289.427 278.171 288.803 279.918C288.193 281.625 286.917 283.6 285.102 285.414C283.288 287.229 281.313 288.505 279.606 289.115C277.858 289.739 276.572 289.613 275.91 288.95Z" stroke="#FF5959" stroke-opacity="0.9"/>
<path d="M275.203 288.243C274.54 287.58 274.414 286.294 275.038 284.547C275.647 282.84 276.924 280.865 278.738 279.051C280.553 277.236 282.527 275.96 284.235 275.35C285.982 274.726 287.268 274.852 287.931 275.515C288.593 276.178 288.72 277.464 288.096 279.211C287.486 280.918 286.21 282.893 284.395 284.707C282.581 286.522 280.606 287.798 278.899 288.408C277.151 289.032 275.865 288.905 275.203 288.243Z" stroke="#FF5959" stroke-opacity="0.9"/>
<path d="M274.496 287.536C273.833 286.873 273.707 285.587 274.331 283.84C274.94 282.133 276.217 280.158 278.031 278.343C279.846 276.529 281.82 275.253 283.528 274.643C285.275 274.019 286.561 274.145 287.224 274.808C287.886 275.47 288.013 276.757 287.389 278.504C286.779 280.211 285.503 282.186 283.688 284C281.873 285.815 279.899 287.091 278.191 287.701C276.444 288.325 275.158 288.198 274.496 287.536Z" stroke="#FF5959" stroke-opacity="0.9"/>
<path d="M273.789 286.829C273.126 286.166 272.999 284.88 273.623 283.133C274.233 281.425 275.51 279.451 277.324 277.636C279.139 275.822 281.113 274.545 282.821 273.936C284.568 273.312 285.854 273.438 286.516 274.101C287.179 274.763 287.306 276.049 286.682 277.797C286.072 279.504 284.795 281.479 282.981 283.293C281.166 285.108 279.192 286.384 277.484 286.994C275.737 287.618 274.451 287.491 273.789 286.829Z" stroke="#FF5959" stroke-opacity="0.9"/>
<path d="M278.738 291.778C278.076 291.116 277.949 289.83 278.573 288.083C279.183 286.375 280.459 284.401 282.274 282.586C284.088 280.772 286.063 279.495 287.77 278.885C289.518 278.261 290.804 278.388 291.466 279.051C292.129 279.713 292.255 280.999 291.631 282.746C291.022 284.454 289.745 286.428 287.931 288.243C286.116 290.057 284.142 291.334 282.434 291.944C280.687 292.568 279.401 292.441 278.738 291.778Z" stroke="#FF5959" stroke-opacity="0.9"/>
<path d="M273.47 287.147C272.613 286.29 272.561 284.769 273.2 282.982C273.836 281.199 275.155 279.169 277.006 277.318C278.857 275.467 280.886 274.149 282.669 273.512C284.456 272.874 285.978 272.926 286.835 273.783C287.692 274.64 287.744 276.161 287.105 277.948C286.469 279.731 285.15 281.761 283.299 283.611C281.448 285.462 279.419 286.781 277.636 287.418C275.849 288.056 274.327 288.004 273.47 287.147Z" stroke="black" stroke-width="0.1"/>
<path d="M262.121 275.869L279.445 293.193" stroke="black" stroke-width="0.5"/>
<path d="M275.38 261.903L292.704 279.227" stroke="black" stroke-width="0.5"/>
<path d="M227.27 227.875L235.868 236.473" stroke="black" stroke-width="2"/>
<mask id="path-32-inside-2" fill="white">
<ellipse cx="197.089" cy="197.576" rx="18.5" ry="4" transform="rotate(135 197.089 197.576)"/>
</mask>
<path d="M186.836 207.829C187.59 208.582 187.694 209.419 187.702 209.711C187.709 209.979 187.654 210.027 187.741 209.759C187.91 209.236 188.353 208.309 189.202 206.993C190.862 204.416 193.616 201.049 197.089 197.576L191.432 191.919C187.681 195.67 184.528 199.477 182.477 202.659C181.47 204.222 180.607 205.82 180.129 207.297C179.892 208.03 179.678 208.947 179.705 209.932C179.733 210.941 180.035 212.342 181.179 213.486L186.836 207.829ZM197.089 197.576C200.563 194.102 203.93 191.348 206.506 189.688C207.822 188.84 208.75 188.396 209.273 188.227C209.54 188.141 209.492 188.196 209.225 188.189C208.932 188.18 208.096 188.076 207.342 187.323L212.999 181.666C211.855 180.522 210.455 180.219 209.445 180.192C208.461 180.164 207.544 180.378 206.811 180.615C205.333 181.093 203.735 181.956 202.173 182.963C198.991 185.014 195.184 188.168 191.432 191.919L197.089 197.576ZM207.342 187.323C206.589 186.569 206.485 185.733 206.477 185.44C206.469 185.173 206.524 185.125 206.438 185.392C206.269 185.915 205.825 186.843 204.977 188.159C203.317 190.735 200.563 194.102 197.089 197.576L202.746 203.233C206.497 199.481 209.651 195.674 211.702 192.493C212.709 190.93 213.572 189.332 214.05 187.854C214.287 187.121 214.501 186.204 214.474 185.22C214.446 184.21 214.143 182.81 212.999 181.666L207.342 187.323ZM197.089 197.576C193.616 201.049 190.249 203.803 187.672 205.463C186.356 206.312 185.429 206.755 184.906 206.924C184.638 207.011 184.686 206.956 184.954 206.963C185.247 206.971 186.083 207.075 186.836 207.829L181.179 213.486C182.324 214.63 183.724 214.932 184.734 214.96C185.718 214.987 186.635 214.773 187.368 214.536C188.846 214.058 190.443 213.195 192.006 212.188C195.188 210.137 198.995 206.984 202.746 203.233L197.089 197.576Z" fill="black" mask="url(#path-32-inside-2)"/>
<path d="M204.402 219.149C203.749 218.496 203.645 217.182 204.337 215.359C205.01 213.584 206.377 211.518 208.291 209.603C210.206 207.689 212.272 206.323 214.047 205.649C215.87 204.958 217.184 205.061 217.837 205.714C218.49 206.367 218.594 207.681 217.902 209.504C217.229 211.28 215.862 213.346 213.948 215.26C212.033 217.175 209.967 218.541 208.192 219.214C206.369 219.906 205.055 219.802 204.402 219.149Z" stroke="black"/>
<path d="M219.958 234.706C219.305 234.053 219.202 232.739 219.893 230.915C220.567 229.14 221.933 227.074 223.847 225.16C225.762 223.245 227.828 221.879 229.603 221.206C231.427 220.514 232.74 220.618 233.393 221.271C234.046 221.924 234.15 223.237 233.458 225.061C232.785 226.836 231.419 228.902 229.504 230.817C227.59 232.731 225.524 234.097 223.749 234.771C221.925 235.462 220.611 235.359 219.958 234.706Z" stroke="black"/>
<path d="M197.331 197.936L211.12 211.725" stroke="black" stroke-width="2"/>
<path d="M218.898 232.231C218.622 231.955 218.457 231.542 218.443 230.971C218.429 230.396 218.57 229.693 218.875 228.9C219.484 227.316 220.714 225.465 222.433 223.746C224.153 222.026 226.003 220.796 227.588 220.187C228.38 219.882 229.084 219.741 229.659 219.755C230.23 219.77 230.643 219.935 230.919 220.21C231.194 220.485 231.359 220.899 231.373 221.47C231.387 222.045 231.246 222.748 230.941 223.541C230.332 225.125 229.103 226.976 227.383 228.695C225.663 230.415 223.813 231.644 222.229 232.254C221.436 232.559 220.732 232.7 220.158 232.685C219.586 232.671 219.173 232.506 218.898 232.231Z" stroke="#FF5959" stroke-opacity="0.9"/>
<path d="M219.605 232.938C219.329 232.662 219.164 232.249 219.15 231.678C219.136 231.103 219.277 230.4 219.582 229.607C220.191 228.023 221.421 226.172 223.14 224.453C224.86 222.733 226.711 221.503 228.295 220.894C229.087 220.589 229.791 220.448 230.366 220.463C230.937 220.477 231.35 220.642 231.626 220.917C231.901 221.193 232.066 221.606 232.08 222.177C232.094 222.752 231.953 223.455 231.649 224.248C231.039 225.832 229.81 227.683 228.09 229.402C226.37 231.122 224.52 232.352 222.936 232.961C222.143 233.266 221.439 233.407 220.865 233.392C220.293 233.378 219.88 233.213 219.605 232.938Z" stroke="#FF5959" stroke-opacity="0.9"/>
<path d="M218.191 231.524C217.915 231.248 217.75 230.835 217.736 230.264C217.722 229.689 217.863 228.986 218.168 228.193C218.777 226.609 220.006 224.758 221.726 223.038C223.446 221.319 225.296 220.089 226.88 219.48C227.673 219.175 228.377 219.034 228.952 219.048C229.523 219.062 229.936 219.227 230.211 219.503C230.487 219.778 230.652 220.192 230.666 220.763C230.68 221.338 230.539 222.041 230.234 222.834C229.625 224.418 228.396 226.268 226.676 227.988C224.956 229.708 223.106 230.937 221.522 231.547C220.729 231.852 220.025 231.992 219.45 231.978C218.879 231.964 218.466 231.799 218.191 231.524Z" stroke="#FF5959" stroke-opacity="0.9"/>
<path d="M218.191 231.524C217.915 231.248 217.75 230.835 217.736 230.264C217.722 229.689 217.863 228.986 218.168 228.193C218.777 226.609 220.006 224.758 221.726 223.038C223.446 221.319 225.296 220.089 226.88 219.48C227.673 219.175 228.377 219.034 228.952 219.048C229.523 219.062 229.936 219.227 230.211 219.503C230.487 219.778 230.652 220.192 230.666 220.763C230.68 221.338 230.539 222.041 230.234 222.834C229.625 224.418 228.396 226.268 226.676 227.988C224.956 229.708 223.106 230.937 221.522 231.547C220.729 231.852 220.025 231.992 219.45 231.978C218.879 231.964 218.466 231.799 218.191 231.524Z" stroke="#FF5959" stroke-opacity="0.9"/>
<path d="M217.483 230.817C217.208 230.541 217.043 230.128 217.029 229.557C217.015 228.982 217.156 228.278 217.461 227.486C218.07 225.901 219.299 224.051 221.019 222.331C222.739 220.612 224.589 219.382 226.173 218.773C226.966 218.468 227.67 218.327 228.244 218.341C228.816 218.355 229.229 218.52 229.504 218.796C229.78 219.071 229.945 219.484 229.959 220.056C229.973 220.63 229.832 221.334 229.527 222.127C228.918 223.711 227.688 225.561 225.969 227.281C224.249 229.001 222.399 230.23 220.814 230.84C220.022 231.144 219.318 231.285 218.743 231.271C218.172 231.257 217.759 231.092 217.483 230.817Z" stroke="#FF5959" stroke-opacity="0.9"/>
<path d="M216.776 230.109C216.501 229.834 216.336 229.421 216.322 228.85C216.308 228.275 216.449 227.571 216.753 226.779C217.363 225.194 218.592 223.344 220.312 221.624C222.032 219.904 223.882 218.675 225.466 218.066C226.259 217.761 226.963 217.62 227.537 217.634C228.108 217.648 228.522 217.813 228.797 218.089C229.073 218.364 229.238 218.777 229.252 219.349C229.266 219.923 229.125 220.627 228.82 221.42C228.211 223.004 226.981 224.854 225.262 226.574C223.542 228.294 221.691 229.523 220.107 230.132C219.315 230.437 218.611 230.578 218.036 230.564C217.465 230.55 217.052 230.385 216.776 230.109Z" stroke="#FF5959" stroke-opacity="0.9"/>
<path d="M216.069 229.402C215.794 229.127 215.629 228.714 215.615 228.142C215.6 227.568 215.741 226.864 216.046 226.071C216.656 224.487 217.885 222.637 219.605 220.917C221.325 219.197 223.175 217.968 224.759 217.359C225.552 217.054 226.255 216.913 226.83 216.927C227.401 216.941 227.815 217.106 228.09 217.382C228.366 217.657 228.53 218.07 228.545 218.641C228.559 219.216 228.418 219.92 228.113 220.712C227.504 222.297 226.274 224.147 224.555 225.867C222.835 227.587 220.984 228.816 219.4 229.425C218.607 229.73 217.904 229.871 217.329 229.857C216.758 229.843 216.345 229.678 216.069 229.402Z" stroke="#FF5959" stroke-opacity="0.9"/>
<path d="M220.312 233.645C220.036 233.37 219.872 232.956 219.857 232.385C219.843 231.81 219.984 231.107 220.289 230.314C220.898 228.73 222.128 226.879 223.847 225.16C225.567 223.44 227.418 222.211 229.002 221.601C229.795 221.296 230.498 221.155 231.073 221.17C231.644 221.184 232.057 221.349 232.333 221.624C232.608 221.9 232.773 222.313 232.787 222.884C232.802 223.459 232.661 224.162 232.356 224.955C231.746 226.539 230.517 228.39 228.797 230.109C227.077 231.829 225.227 233.059 223.643 233.668C222.85 233.973 222.147 234.114 221.572 234.1C221.001 234.085 220.587 233.92 220.312 233.645Z" stroke="#FF5959" stroke-opacity="0.9"/>
<path d="M215.751 229.721C215.372 229.342 215.181 228.805 215.165 228.154C215.149 227.502 215.308 226.738 215.626 225.91C216.263 224.254 217.533 222.352 219.287 220.599C221.04 218.845 222.942 217.575 224.598 216.939C225.425 216.62 226.189 216.461 226.841 216.477C227.493 216.493 228.029 216.684 228.408 217.063C228.787 217.442 228.978 217.979 228.994 218.63C229.011 219.282 228.851 220.046 228.533 220.874C227.896 222.53 226.626 224.431 224.873 226.185C223.119 227.939 221.217 229.209 219.562 229.845C218.734 230.164 217.97 230.323 217.318 230.307C216.667 230.291 216.13 230.1 215.751 229.721Z" stroke="black" stroke-width="0.1"/>
<path d="M204.402 219.149L220.394 235.142" stroke="black" stroke-width="0.5"/>
<path d="M217.66 205.184L233.99 221.513" stroke="black" stroke-width="0.5"/>
<path d="M219.186 315.706L229.717 321.786" stroke="black" stroke-width="2"/>
<path d="M171.152 306.542C171.152 306.542 171.15 306.54 171.148 306.535C171.151 306.539 171.152 306.542 171.152 306.542ZM171.493 306.107C171.314 306.197 171.176 306.253 171.071 306.288C171.05 306.18 171.029 306.032 171.018 305.832C170.972 305.037 171.112 303.853 171.51 302.312C172.298 299.259 173.98 295.251 176.401 291.057C178.822 286.863 181.452 283.403 183.702 281.194C184.838 280.079 185.793 279.365 186.505 279.007C186.684 278.917 186.822 278.861 186.927 278.826C186.948 278.934 186.969 279.082 186.981 279.282C187.026 280.077 186.886 281.261 186.488 282.802C185.7 285.855 184.019 289.863 181.597 294.057C179.176 298.251 176.546 301.711 174.296 303.92C173.16 305.035 172.205 305.749 171.493 306.107ZM187.187 278.769C187.187 278.769 187.184 278.769 187.179 278.768C187.184 278.768 187.187 278.769 187.187 278.769ZM186.846 278.572C186.846 278.572 186.848 278.574 186.851 278.579C186.847 278.574 186.846 278.572 186.846 278.572ZM170.82 306.346C170.814 306.346 170.811 306.345 170.811 306.345C170.811 306.345 170.814 306.345 170.82 306.346Z" stroke="black" stroke-width="4"/>
<path d="M193.668 313.15C193.355 312.97 193.102 312.604 192.971 311.986C192.839 311.368 192.844 310.554 193 309.585C193.311 307.652 194.209 305.212 195.637 302.74C197.064 300.268 198.727 298.27 200.246 297.034C201.007 296.414 201.71 296.003 202.311 295.808C202.912 295.613 203.355 295.649 203.668 295.83C203.98 296.01 204.233 296.376 204.364 296.994C204.496 297.612 204.492 298.426 204.336 299.395C204.025 301.328 203.126 303.768 201.699 306.24C200.271 308.712 198.608 310.71 197.089 311.946C196.328 312.566 195.625 312.976 195.024 313.172C194.423 313.367 193.98 313.331 193.668 313.15Z" stroke="black"/>
<path d="M213.153 324.4C212.762 324.174 212.458 323.754 212.281 323.11C212.103 322.463 212.064 321.624 212.182 320.638C212.417 318.667 213.265 316.207 214.689 313.74C216.113 311.273 217.82 309.308 219.409 308.119C220.205 307.524 220.951 307.139 221.6 306.969C222.246 306.801 222.762 306.854 223.153 307.08C223.545 307.306 223.848 307.726 224.026 308.37C224.203 309.017 224.242 309.855 224.125 310.842C223.89 312.813 223.042 315.273 221.617 317.74C220.193 320.207 218.486 322.172 216.897 323.361C216.102 323.956 215.356 324.341 214.707 324.511C214.06 324.679 213.545 324.626 213.153 324.4Z" stroke="black"/>
<path d="M179.865 293.057L199.406 304.286" stroke="black" stroke-width="2"/>
<path d="M211.488 322.284C211.159 322.094 210.898 321.735 210.746 321.164C210.594 320.591 210.565 319.842 210.676 318.956C210.899 317.186 211.67 314.968 212.957 312.74C214.244 310.511 215.778 308.734 217.2 307.657C217.911 307.117 218.574 306.768 219.147 306.613C219.717 306.459 220.159 306.506 220.488 306.696C220.817 306.886 221.078 307.245 221.23 307.816C221.382 308.389 221.412 309.138 221.3 310.024C221.078 311.794 220.306 314.011 219.019 316.24C217.733 318.468 216.198 320.246 214.777 321.323C214.065 321.863 213.402 322.212 212.829 322.366C212.259 322.521 211.817 322.474 211.488 322.284Z" stroke="#FF5959" stroke-opacity="0.9"/>
<path d="M212.354 322.784C212.025 322.594 211.764 322.235 211.612 321.664C211.46 321.091 211.431 320.342 211.542 319.456C211.765 317.686 212.536 315.468 213.823 313.24C215.11 311.011 216.644 309.234 218.066 308.157C218.777 307.617 219.44 307.268 220.013 307.113C220.583 306.959 221.025 307.006 221.354 307.196C221.683 307.386 221.944 307.745 222.096 308.316C222.248 308.889 222.278 309.638 222.166 310.524C221.944 312.294 221.172 314.511 219.885 316.74C218.599 318.968 217.064 320.746 215.643 321.823C214.931 322.363 214.268 322.712 213.695 322.866C213.125 323.021 212.683 322.974 212.354 322.784Z" stroke="#FF5959" stroke-opacity="0.9"/>
<path d="M210.622 321.784C210.293 321.594 210.032 321.235 209.88 320.664C209.728 320.091 209.699 319.342 209.81 318.456C210.033 316.686 210.804 314.468 212.091 312.24C213.378 310.011 214.912 308.234 216.333 307.157C217.045 306.617 217.708 306.268 218.281 306.113C218.851 305.959 219.293 306.006 219.622 306.196C219.951 306.386 220.212 306.745 220.364 307.316C220.516 307.889 220.546 308.638 220.434 309.524C220.212 311.294 219.44 313.511 218.153 315.74C216.867 317.968 215.332 319.746 213.911 320.823C213.199 321.363 212.536 321.712 211.963 321.866C211.393 322.021 210.951 321.974 210.622 321.784Z" stroke="#FF5959" stroke-opacity="0.9"/>
<path d="M209.756 321.284C209.427 321.094 209.166 320.735 209.014 320.164C208.862 319.591 208.833 318.842 208.944 317.956C209.167 316.186 209.938 313.968 211.225 311.74C212.512 309.511 214.046 307.734 215.467 306.657C216.179 306.117 216.842 305.768 217.415 305.613C217.985 305.459 218.427 305.506 218.756 305.696C219.085 305.886 219.346 306.245 219.498 306.816C219.65 307.389 219.68 308.138 219.568 309.024C219.346 310.794 218.574 313.011 217.287 315.24C216.001 317.468 214.466 319.246 213.045 320.323C212.333 320.863 211.67 321.212 211.097 321.366C210.527 321.521 210.085 321.474 209.756 321.284Z" stroke="#FF5959" stroke-opacity="0.9"/>
<path d="M209.323 321.034C208.512 320.566 208.056 319.356 208.207 317.507C208.354 315.7 209.076 313.462 210.359 311.24C211.642 309.018 213.219 307.274 214.71 306.243C216.237 305.188 217.512 304.977 218.323 305.446C219.135 305.914 219.59 307.124 219.439 308.973C219.292 310.78 218.57 313.018 217.287 315.24C216.004 317.462 214.427 319.206 212.936 320.237C211.41 321.292 210.135 321.503 209.323 321.034Z" stroke="#FF5959" stroke-opacity="0.9"/>
<path d="M208.457 320.534C207.646 320.066 207.19 318.856 207.341 317.007C207.488 315.2 208.21 312.962 209.493 310.74C210.776 308.518 212.353 306.774 213.844 305.743C215.371 304.688 216.646 304.477 217.457 304.946C218.269 305.414 218.724 306.624 218.573 308.473C218.426 310.28 217.704 312.518 216.421 314.74C215.138 316.962 213.561 318.706 212.07 319.737C210.544 320.792 209.269 321.003 208.457 320.534Z" stroke="#FF5959" stroke-opacity="0.9"/>
<path d="M207.591 320.034C206.78 319.566 206.324 318.356 206.475 316.507C206.622 314.7 207.344 312.462 208.627 310.24C209.91 308.018 211.487 306.274 212.978 305.243C214.505 304.188 215.78 303.977 216.591 304.446C217.402 304.914 217.858 306.124 217.707 307.973C217.56 309.78 216.838 312.018 215.555 314.24C214.272 316.462 212.695 318.206 211.204 319.237C209.678 320.292 208.402 320.503 207.591 320.034Z" stroke="#FF5959" stroke-opacity="0.9"/>
<path d="M213.22 323.284C212.891 323.094 212.63 322.735 212.478 322.164C212.326 321.591 212.297 320.842 212.408 319.956C212.631 318.186 213.403 315.968 214.689 313.74C215.976 311.511 217.51 309.734 218.932 308.657C219.643 308.117 220.306 307.768 220.879 307.613C221.449 307.459 221.891 307.506 222.22 307.696C222.549 307.886 222.811 308.245 222.962 308.816C223.114 309.389 223.144 310.138 223.032 311.024C222.81 312.794 222.038 315.011 220.751 317.24C219.465 319.468 217.93 321.246 216.509 322.323C215.797 322.863 215.134 323.212 214.561 323.366C213.991 323.521 213.549 323.474 213.22 323.284Z" stroke="#FF5959" stroke-opacity="0.9"/>
<path d="M207.366 320.424C206.316 319.818 205.873 318.362 206.026 316.471C206.18 314.583 206.928 312.282 208.237 310.015C209.546 307.748 211.165 305.949 212.723 304.873C214.284 303.794 215.766 303.45 216.816 304.056C217.866 304.662 218.31 306.118 218.156 308.009C218.002 309.896 217.254 312.198 215.945 314.465C214.636 316.732 213.017 318.531 211.46 319.607C209.899 320.686 208.416 321.03 207.366 320.424Z" stroke="black" stroke-width="0.1"/>
<path d="M193.319 312.949L212.72 324.15" stroke="black" stroke-width="0.5"/>
<path d="M204.101 296.08L223.586 307.33" stroke="black" stroke-width="0.5"/>
<path d="M317.852 218.854L323.932 229.385" stroke="black" stroke-width="2"/>
<path d="M280.835 186.901C280.835 186.901 280.835 186.898 280.835 186.892C280.836 186.898 280.835 186.901 280.835 186.901ZM281.348 186.694C281.148 186.683 281 186.662 280.892 186.641C280.928 186.536 280.984 186.398 281.074 186.219C281.432 185.507 282.145 184.552 283.26 183.416C285.469 181.166 288.929 178.536 293.124 176.115C297.318 173.693 301.325 172.012 304.378 171.224C305.919 170.826 307.104 170.686 307.899 170.731C308.099 170.743 308.247 170.764 308.355 170.785C308.32 170.89 308.263 171.028 308.173 171.207C307.815 171.919 307.102 172.874 305.987 174.01C303.778 176.26 300.318 178.89 296.124 181.311C291.929 183.732 287.922 185.414 284.869 186.202C283.328 186.6 282.144 186.74 281.348 186.694ZM308.609 170.866C308.609 170.866 308.606 170.865 308.601 170.861C308.607 170.864 308.609 170.866 308.609 170.866ZM308.412 170.525C308.412 170.525 308.412 170.528 308.412 170.533C308.412 170.528 308.412 170.525 308.412 170.525ZM280.646 186.564C280.64 186.562 280.638 186.56 280.638 186.56C280.638 186.56 280.641 186.561 280.646 186.564Z" stroke="black" stroke-width="4"/>
<path d="M297.03 203.882C296.85 203.569 296.814 203.126 297.009 202.525C297.204 201.924 297.615 201.221 298.234 200.46C299.47 198.941 301.468 197.278 303.941 195.85C306.413 194.423 308.852 193.525 310.786 193.213C311.754 193.057 312.569 193.053 313.187 193.185C313.805 193.316 314.17 193.569 314.351 193.882C314.531 194.194 314.567 194.637 314.372 195.238C314.177 195.839 313.766 196.542 313.147 197.303C311.911 198.822 309.913 200.485 307.441 201.913C304.968 203.34 302.529 204.238 300.595 204.55C299.627 204.706 298.812 204.71 298.194 204.578C297.576 204.447 297.211 204.194 297.03 203.882Z" stroke="black"/>
<path d="M308.28 223.367C308.054 222.975 308.001 222.46 308.17 221.814C308.339 221.164 308.725 220.419 309.32 219.623C310.509 218.034 312.474 216.327 314.941 214.903C317.407 213.479 319.868 212.631 321.839 212.396C322.825 212.278 323.664 212.317 324.311 212.495C324.955 212.672 325.375 212.975 325.601 213.367C325.827 213.759 325.88 214.274 325.711 214.92C325.542 215.57 325.156 216.316 324.561 217.111C323.372 218.7 321.407 220.407 318.941 221.831C316.474 223.255 314.013 224.104 312.042 224.339C311.056 224.456 310.217 224.417 309.57 224.239C308.926 224.062 308.506 223.759 308.28 223.367Z" stroke="black"/>
<path d="M295.124 179.579L306.432 199.074" stroke="black" stroke-width="2"/>
<path d="M307.896 220.702C307.706 220.373 307.66 219.931 307.814 219.361C307.969 218.788 308.318 218.125 308.857 217.413C309.935 215.992 311.712 214.458 313.941 213.171C316.169 211.884 318.386 211.112 320.156 210.89C321.042 210.778 321.791 210.808 322.364 210.96C322.935 211.112 323.295 211.373 323.485 211.702C323.675 212.031 323.721 212.473 323.567 213.043C323.412 213.616 323.063 214.279 322.524 214.991C321.446 216.412 319.669 217.947 317.441 219.233C315.212 220.52 312.995 221.292 311.225 221.514C310.339 221.626 309.59 221.596 309.017 221.444C308.446 221.292 308.086 221.031 307.896 220.702Z" stroke="#FF5959" stroke-opacity="0.9"/>
<path d="M308.396 221.568C308.206 221.239 308.16 220.797 308.314 220.227C308.469 219.654 308.818 218.991 309.357 218.279C310.435 216.858 312.212 215.324 314.441 214.037C316.669 212.75 318.886 211.978 320.656 211.756C321.542 211.645 322.291 211.674 322.864 211.826C323.435 211.978 323.795 212.239 323.985 212.568C324.175 212.897 324.221 213.339 324.067 213.909C323.912 214.482 323.563 215.145 323.024 215.857C321.946 217.278 320.169 218.813 317.941 220.099C315.712 221.386 313.495 222.158 311.725 222.38C310.839 222.492 310.09 222.462 309.517 222.31C308.946 222.158 308.586 221.897 308.396 221.568Z" stroke="#FF5959" stroke-opacity="0.9"/>
<path d="M307.396 219.836C307.206 219.507 307.16 219.065 307.314 218.495C307.469 217.922 307.818 217.259 308.357 216.547C309.435 215.126 311.212 213.592 313.441 212.305C315.669 211.018 317.886 210.246 319.656 210.024C320.542 209.912 321.291 209.942 321.864 210.094C322.435 210.246 322.795 210.507 322.985 210.836C323.175 211.165 323.221 211.607 323.067 212.177C322.912 212.75 322.563 213.413 322.024 214.125C320.946 215.546 319.169 217.08 316.941 218.367C314.712 219.654 312.495 220.426 310.725 220.648C309.839 220.76 309.09 220.73 308.517 220.578C307.946 220.426 307.586 220.165 307.396 219.836Z" stroke="#FF5959" stroke-opacity="0.9"/>
<path d="M306.896 218.97C306.706 218.641 306.66 218.199 306.814 217.629C306.969 217.056 307.318 216.393 307.857 215.681C308.935 214.26 310.712 212.726 312.941 211.439C315.169 210.152 317.386 209.38 319.156 209.158C320.042 209.046 320.791 209.076 321.364 209.228C321.935 209.38 322.295 209.641 322.485 209.97C322.675 210.299 322.721 210.741 322.567 211.311C322.412 211.884 322.063 212.547 321.524 213.259C320.446 214.68 318.669 216.214 316.441 217.501C314.212 218.788 311.995 219.56 310.225 219.782C309.339 219.894 308.59 219.864 308.017 219.712C307.446 219.56 307.086 219.299 306.896 218.97Z" stroke="#FF5959" stroke-opacity="0.9"/>
<path d="M306.646 218.537C306.178 217.726 306.388 216.451 307.443 214.924C308.474 213.433 310.218 211.856 312.441 210.573C314.663 209.29 316.901 208.568 318.708 208.421C320.557 208.27 321.766 208.726 322.235 209.537C322.703 210.348 322.493 211.623 321.438 213.15C320.407 214.641 318.663 216.218 316.441 217.501C314.218 218.784 311.98 219.506 310.173 219.653C308.324 219.804 307.115 219.348 306.646 218.537Z" stroke="#FF5959" stroke-opacity="0.9"/>
<path d="M306.146 217.671C305.678 216.86 305.888 215.584 306.943 214.058C307.974 212.567 309.718 210.99 311.941 209.707C314.163 208.424 316.401 207.702 318.208 207.555C320.057 207.404 321.266 207.86 321.735 208.671C322.203 209.482 321.993 210.757 320.938 212.284C319.907 213.775 318.163 215.352 315.941 216.635C313.718 217.918 311.48 218.64 309.673 218.787C307.824 218.938 306.615 218.482 306.146 217.671Z" stroke="#FF5959" stroke-opacity="0.9"/>
<path d="M305.646 216.805C305.178 215.994 305.388 214.718 306.443 213.192C307.474 211.701 309.218 210.124 311.441 208.841C313.663 207.558 315.901 206.836 317.708 206.689C319.557 206.538 320.766 206.994 321.235 207.805C321.703 208.616 321.493 209.891 320.438 211.418C319.407 212.909 317.663 214.486 315.441 215.769C313.218 217.052 310.98 217.774 309.173 217.921C307.324 218.072 306.115 217.616 305.646 216.805Z" stroke="#FF5959" stroke-opacity="0.9"/>
<path d="M308.896 222.434C308.706 222.105 308.66 221.663 308.814 221.093C308.969 220.52 309.318 219.857 309.857 219.145C310.935 217.724 312.712 216.19 314.941 214.903C317.169 213.616 319.386 212.845 321.156 212.622C322.042 212.511 322.791 212.54 323.364 212.692C323.935 212.844 324.295 213.105 324.485 213.434C324.675 213.763 324.721 214.205 324.567 214.775C324.412 215.348 324.063 216.011 323.524 216.723C322.446 218.144 320.669 219.679 318.441 220.965C316.212 222.252 313.995 223.024 312.225 223.246C311.339 223.358 310.59 223.328 310.017 223.176C309.446 223.024 309.086 222.763 308.896 222.434Z" stroke="#FF5959" stroke-opacity="0.9"/>
<path d="M305.257 217.03C304.651 215.98 304.994 214.497 306.073 212.936C307.15 211.379 308.949 209.76 311.216 208.451C313.482 207.142 315.784 206.394 317.671 206.24C319.562 206.086 321.018 206.53 321.624 207.58C322.23 208.63 321.887 210.112 320.808 211.673C319.731 213.231 317.932 214.85 315.666 216.159C313.399 217.468 311.097 218.216 309.21 218.37C307.319 218.523 305.863 218.08 305.257 217.03Z" stroke="black" stroke-width="0.1"/>
<path d="M296.829 203.533L308.03 222.934" stroke="black" stroke-width="0.5"/>
<path d="M314.601 194.315L325.851 213.8" stroke="black" stroke-width="0.5"/>
</svg>
