<?xml version="1.0" encoding="utf-8" standalone="no"?>
<!DOCTYPE svg PUBLIC "-//W3C//DTD SVG 1.1//EN"
  "http://www.w3.org/Graphics/SVG/1.1/DTD/svg11.dtd">
<!-- Created with matplotlib (https://matplotlib.org/) -->
<svg height="432pt" version="1.1" viewBox="0 0 684 432" width="684pt" xmlns="http://www.w3.org/2000/svg" xmlns:xlink="http://www.w3.org/1999/xlink">
 <defs>
  <style type="text/css">
*{stroke-linecap:butt;stroke-linejoin:round;}
  </style>
 </defs>
 <g id="figure_1">
  <g id="patch_1">
   <path d="M 0 432 
L 684 432 
L 684 0 
L 0 0 
z
" style="fill:none;"/>
  </g>
  <g id="axes_1">
   <g id="patch_2">
    <path d="M 102.6 367.2 
L 615.6 367.2 
L 615.6 51.84 
L 102.6 51.84 
z
" style="fill:none;"/>
   </g>
   <g id="matplotlib.axis_1">
    <g id="xtick_1">
     <g id="text_1">
      <text style="fill:#262626;font-family:Helvetica Neue;font-size:12px;font-style:normal;font-weight:normal;text-anchor:middle;" transform="rotate(-0, 200.983562, 385.26875)" x="200.983562" y="385.26875">01 Jan</text>
     </g>
    </g>
    <g id="xtick_2">
     <g id="text_2">
      <text style="fill:#262626;font-family:Helvetica Neue;font-size:12px;font-style:normal;font-weight:normal;text-anchor:middle;" transform="rotate(-0, 299.367123, 385.26875)" x="299.367123" y="385.26875">15 Jan</text>
     </g>
    </g>
    <g id="xtick_3">
     <g id="text_3">
      <text style="fill:#262626;font-family:Helvetica Neue;font-size:12px;font-style:normal;font-weight:normal;text-anchor:middle;" transform="rotate(-0, 418.832877, 385.26875)" x="418.832877" y="385.26875">01 Feb</text>
     </g>
    </g>
    <g id="xtick_4">
     <g id="text_4">
      <text style="fill:#262626;font-family:Helvetica Neue;font-size:12px;font-style:normal;font-weight:normal;text-anchor:middle;" transform="rotate(-0, 517.216438, 385.26875)" x="517.216438" y="385.26875">15 Feb</text>
     </g>
    </g>
    <g id="xtick_5">
     <g id="text_5">
      <text style="fill:#262626;font-family:Helvetica Neue;font-size:12px;font-style:normal;font-weight:normal;text-anchor:middle;" transform="rotate(-0, 615.6, 385.26875)" x="615.6" y="385.26875">01 Mar</text>
     </g>
    </g>
    <g id="text_6">
     <text style="fill:#696969;font-family:Helvetica Neue;font-size:20px;font-style:normal;font-weight:500;" transform="translate(359.1 405.914375)"/>
     <text style="fill:#696969;font-family:Helvetica Neue;font-size:20px;font-style:normal;font-weight:500;" transform="translate(339.279688 426.9925)">date</text>
    </g>
   </g>
   <g id="matplotlib.axis_2">
    <g id="ytick_1">
     <g id="text_7">
      <text style="fill:#262626;font-family:Helvetica Neue;font-size:12px;font-style:normal;font-weight:normal;text-anchor:end;" transform="rotate(-0, 93.1, 371.484375)" x="93.1" y="371.484375">0.5</text>
     </g>
    </g>
    <g id="ytick_2">
     <g id="text_8">
      <text style="fill:#262626;font-family:Helvetica Neue;font-size:12px;font-style:normal;font-weight:normal;text-anchor:end;" transform="rotate(-0, 93.1, 308.412375)" x="93.1" y="308.412375">1.0</text>
     </g>
    </g>
    <g id="ytick_3">
     <g id="text_9">
      <text style="fill:#262626;font-family:Helvetica Neue;font-size:12px;font-style:normal;font-weight:normal;text-anchor:end;" transform="rotate(-0, 93.1, 245.340375)" x="93.1" y="245.340375">1.5</text>
     </g>
    </g>
    <g id="ytick_4">
     <g id="text_10">
      <text style="fill:#262626;font-family:Helvetica Neue;font-size:12px;font-style:normal;font-weight:normal;text-anchor:end;" transform="rotate(-0, 93.1, 182.268375)" x="93.1" y="182.268375">2.0</text>
     </g>
    </g>
    <g id="ytick_5">
     <g id="text_11">
      <text style="fill:#262626;font-family:Helvetica Neue;font-size:12px;font-style:normal;font-weight:normal;text-anchor:end;" transform="rotate(-0, 93.1, 119.196375)" x="93.1" y="119.196375">2.5</text>
     </g>
    </g>
    <g id="ytick_6">
     <g id="text_12">
      <text style="fill:#262626;font-family:Helvetica Neue;font-size:12px;font-style:normal;font-weight:normal;text-anchor:end;" transform="rotate(-0, 93.1, 56.124375)" x="93.1" y="56.124375">3.0</text>
     </g>
    </g>
    <g id="text_13">
     <text style="fill:#696969;font-family:Helvetica Neue;font-size:20px;font-style:normal;font-weight:500;" transform="translate(47.403125 285.47)rotate(-90)">reproductive rate</text>
     <text style="fill:#696969;font-family:Helvetica Neue;font-size:20px;font-style:normal;font-weight:500;" transform="translate(68.48125 209.52)rotate(-90)"/>
    </g>
   </g>
   <g id="PolyCollection_1">
    <defs>
     <path d="M 102.6 -371.73132 
L 102.6 -169.39934 
L 109.627397 -136.708484 
L 116.654795 -128.170242 
L 123.682192 -130.080553 
L 130.709589 -128.725778 
L 137.736986 -130.023984 
L 144.764384 -128.961318 
L 151.791781 -128.624855 
L 158.819178 -127.309751 
L 165.846575 -125.873445 
L 172.873973 -124.540207 
L 179.90137 -122.681795 
L 186.928767 -121.430325 
L 193.956164 -119.719797 
L 200.983562 -118.870438 
L 208.010959 -117.634181 
L 215.038356 -117.53381 
L 222.065753 -116.979754 
L 229.093151 -117.495944 
L 236.120548 -117.617966 
L 243.147945 -118.214783 
L 250.175342 -118.55361 
L 257.20274 -118.86542 
L 264.230137 -118.903223 
L 271.257534 -118.765688 
L 278.284932 -118.369848 
L 285.312329 -117.837122 
L 292.339726 -117.17151 
L 299.367123 -116.448934 
L 306.394521 -115.669547 
L 313.421918 -114.947935 
L 320.449315 -114.16817 
L 327.476712 -113.514301 
L 334.50411 -112.805863 
L 341.531507 -112.241132 
L 348.558904 -111.67849 
L 355.586301 -111.254493 
L 362.613699 -110.877853 
L 369.641096 -110.66573 
L 376.668493 -110.494262 
L 383.69589 -110.516187 
L 390.723288 -110.523868 
L 397.750685 -110.717758 
L 404.778082 -110.846523 
L 411.805479 -111.092749 
L 418.832877 -111.256525 
L 425.860274 -111.463649 
L 432.887671 -111.55177 
L 439.915068 -111.741533 
L 446.942466 -111.726871 
L 453.969863 -111.972407 
L 460.99726 -112.003501 
L 468.024658 -112.465953 
L 475.052055 -112.726434 
L 482.079452 -113.620131 
L 489.106849 -114.262727 
L 496.134247 -115.651951 
L 503.161644 -116.788314 
L 510.189041 -112.608771 
L 517.216438 -116.057688 
L 524.243836 -120.082216 
L 531.271233 -123.486291 
L 538.29863 -127.010852 
L 545.326027 -129.87652 
L 552.353425 -132.546114 
L 559.380822 -134.604021 
L 566.408219 -136.370504 
L 573.435616 -137.535142 
L 580.463014 -138.533383 
L 587.490411 -138.985817 
L 594.517808 -139.380842 
L 601.545205 -139.425582 
L 608.572603 -139.365226 
L 615.6 -138.908935 
L 615.6 -164.563467 
L 615.6 -164.563467 
L 608.572603 -165.529171 
L 601.545205 -166.127778 
L 594.517808 -166.648172 
L 587.490411 -166.846274 
L 580.463014 -167.013374 
L 573.435616 -166.662757 
L 566.408219 -166.16981 
L 559.380822 -165.099241 
L 552.353425 -163.756102 
L 545.326027 -161.818073 
L 538.29863 -159.694143 
L 531.271233 -156.919654 
L 524.243836 -154.265415 
L 517.216438 -150.991953 
L 510.189041 -148.286165 
L 503.161644 -140.957887 
L 496.134247 -140.032254 
L 489.106849 -138.848977 
L 482.079452 -138.404782 
L 475.052055 -137.709108 
L 468.024658 -137.643704 
L 460.99726 -137.379727 
L 453.969863 -137.548588 
L 446.942466 -137.509048 
L 439.915068 -137.733798 
L 432.887671 -137.761173 
L 425.860274 -137.895419 
L 418.832877 -137.917257 
L 411.805479 -137.988095 
L 404.778082 -137.982914 
L 397.750685 -138.101064 
L 390.723288 -138.161601 
L 383.69589 -138.41555 
L 376.668493 -138.664998 
L 369.641096 -139.117996 
L 362.613699 -139.62467 
L 355.586301 -140.310171 
L 348.558904 -141.060211 
L 341.531507 -141.96778 
L 334.50411 -142.899303 
L 327.476712 -143.997964 
L 320.449315 -145.069009 
L 313.421918 -146.294259 
L 306.394521 -147.493539 
L 299.367123 -148.784672 
L 292.339726 -150.056788 
L 285.312329 -151.312363 
L 278.284932 -152.478488 
L 271.257534 -153.553546 
L 264.230137 -154.41884 
L 257.20274 -155.158703 
L 250.175342 -155.677383 
L 243.147945 -156.223762 
L 236.120548 -156.573112 
L 229.093151 -157.461749 
L 222.065753 -158.037432 
L 215.038356 -159.769168 
L 208.010959 -161.165279 
L 200.983562 -163.825737 
L 193.956164 -166.271951 
L 186.928767 -169.776193 
L 179.90137 -173.076296 
L 172.873973 -177.284424 
L 165.846575 -181.356464 
L 158.819178 -186.013607 
L 151.791781 -191.182822 
L 144.764384 -196.226627 
L 137.736986 -203.169519 
L 130.709589 -209.531384 
L 123.682192 -221.323434 
L 116.654795 -235.049429 
L 109.627397 -270.596527 
L 102.6 -371.73132 
z
" id="m4902173d21" style="stroke:#292f36;stroke-opacity:0.3;"/>
    </defs>
    <g clip-path="url(#p29db0b5e6d)">
     <use style="fill:#292f36;fill-opacity:0.3;stroke:#292f36;stroke-opacity:0.3;" x="0" xlink:href="#m4902173d21" y="432"/>
    </g>
   </g>
   <g id="patch_3">
    <path d="M 102.6 367.2 
L 102.6 51.84 
" style="fill:none;stroke:#262626;stroke-linecap:square;stroke-linejoin:miter;stroke-width:1.25;"/>
   </g>
   <g id="patch_4">
    <path d="M 102.6 367.2 
L 615.6 367.2 
" style="fill:none;stroke:#262626;stroke-linecap:square;stroke-linejoin:miter;stroke-width:1.25;"/>
   </g>
   <g id="text_14">
    <!-- $R_t$ over time for Mumbai -->
    <g style="fill:#262626;" transform="translate(102.6 40.323125)">
     <text>
      <tspan style="font-family:Helvetica Neue;font-size:28px;font-style:regular;font-weight:regular;" x="0 26.330628 34.114624 50.186615 64.1866 79.222596 88.546585 96.330582 105.150574 111.366562 135.25055 150.286545 158.070542 166.358536 182.430527 191.754517 199.538513 223.926499 239.494492 263.378479 279.982468 295.018463" y="-0.78125">R over time for Mumbai</tspan>
      <tspan style="font-family:Helvetica Neue;font-size:19.6px;font-style:regular;font-weight:regular;" x="19.433196" y="3.5593749999999993">t</tspan>
     </text>
    </g>
   </g>
   <g id="line2d_1">
    <path clip-path="url(#p29db0b5e6d)" d="M 102.6 159.084078 
L 109.627397 227.317913 
L 116.654795 249.73402 
L 123.682192 255.819785 
L 130.709589 262.496339 
L 137.736986 265.095906 
L 144.764384 269.146111 
L 151.791781 271.871349 
L 158.819178 275.140355 
L 165.846575 278.208205 
L 172.873973 280.927872 
L 179.90137 283.975063 
L 186.928767 286.26247 
L 193.956164 288.879633 
L 200.983562 290.535814 
L 208.010959 292.49141 
L 215.038356 293.246035 
L 222.065753 294.394566 
L 229.093151 294.429395 
L 236.120548 294.817285 
L 243.147945 294.697734 
L 250.175342 294.805331 
L 257.20274 294.912268 
L 264.230137 295.266507 
L 271.257534 295.77086 
L 278.284932 296.508997 
L 285.312329 297.360882 
L 292.339726 298.323725 
L 299.367123 299.32313 
L 306.394521 300.360276 
L 313.421918 301.322455 
L 320.449315 302.326556 
L 327.476712 303.190484 
L 334.50411 304.095392 
L 341.531507 304.844779 
L 348.558904 305.581056 
L 355.586301 306.169169 
L 362.613699 306.701265 
L 369.641096 307.061631 
L 376.668493 307.37478 
L 383.69589 307.489416 
L 390.723288 307.613384 
L 397.750685 307.547512 
L 404.778082 307.542978 
L 411.805479 307.418023 
L 418.832877 307.372275 
L 425.860274 307.280331 
L 432.887671 307.304066 
L 439.915068 307.223523 
L 446.942466 307.343853 
L 453.969863 307.201923 
L 460.99726 307.271392 
L 468.024658 306.908754 
L 475.052055 306.746374 
L 482.079452 305.952254 
L 489.106849 305.409422 
L 496.134247 304.123751 
L 503.161644 303.093341 
L 510.189041 301.479409 
L 517.216438 298.40507 
L 524.243836 294.759058 
L 531.271233 291.732814 
L 538.29863 288.586137 
L 545.326027 286.094092 
L 552.353425 283.792935 
L 559.380822 282.094945 
L 566.408219 280.678829 
L 573.435616 279.852311 
L 580.463014 279.180025 
L 587.490411 279.039363 
L 594.517808 278.94278 
L 601.545205 279.18236 
L 608.572603 279.513476 
L 615.6 280.225989 
" style="fill:none;stroke:#292f36;stroke-width:2;"/>
   </g>
   <g id="legend_1">
    <g id="patch_5">
     <path d="M 110.3 76.48 
L 246.81 76.48 
Q 249.01 76.48 249.01 74.28 
L 249.01 59.54 
Q 249.01 57.34 246.81 57.34 
L 110.3 57.34 
Q 108.1 57.34 108.1 59.54 
L 108.1 74.28 
Q 108.1 76.48 110.3 76.48 
z
" style="fill:none;opacity:0;"/>
    </g>
    <g id="patch_6">
     <path d="M 112.5 69.88 
L 118 69.88 
L 118 62.18 
L 112.5 62.18 
z
" style="fill:#292f36;opacity:0.3;stroke:#292f36;stroke-linejoin:miter;"/>
    </g>
    <g id="line2d_2">
     <path d="M 112.5 66.03 
L 118 66.03 
" style="fill:none;stroke:#292f36;stroke-width:2;"/>
    </g>
    <g id="line2d_3"/>
    <g id="text_15">
     <!-- Estimated $R_t$ (95.0% CI) -->
     <g style="fill:#262626;" transform="translate(126.8 69.88)">
      <text>
       <tspan style="font-family:Helvetica Neue;font-size:11px;font-style:regular;font-weight:regular;" x="0 6.720993 12.220993 15.685989 18.127991 27.510986 33.417984 36.88298 42.789978 49.312973 52.370972 62.715379 65.773378 68.622377 74.738374 80.854371 83.91237 90.028367 101.028367 104.086366 112.028367 114.877366" y="-0.953125">Estimated R (95.0% CI)</tspan>
       <tspan style="font-family:Helvetica Neue;font-size:7.7px;font-style:regular;font-weight:regular;" x="60.005507" y="0.7531250000000007">t</tspan>
      </text>
     </g>
    </g>
   </g>
   <g id="line2d_4">
    <path clip-path="url(#p29db0b5e6d)" d="M 102.6 367.2 
L 102.6 51.84 
" style="fill:none;stroke:#ffffff;stroke-width:10;"/>
   </g>
   <g id="line2d_5">
    <path clip-path="url(#p29db0b5e6d)" d="M 102.6 114.912 
L 102.6 51.84 
" style="fill:none;stroke:#d63231;stroke-opacity:0.9;stroke-width:6;"/>
   </g>
   <g id="line2d_6">
    <path clip-path="url(#p29db0b5e6d)" d="M 102.6 304.128 
L 102.6 114.912 
" style="fill:none;stroke:#fd8b5a;stroke-opacity:0.9;stroke-width:6;"/>
   </g>
   <g id="line2d_7">
    <path clip-path="url(#p29db0b5e6d)" d="M 102.6 367.2 
L 102.6 304.128 
" style="fill:none;stroke:#38ae66;stroke-opacity:0.9;stroke-width:6;"/>
   </g>
   <g id="LineCollection_1">
    <path clip-path="url(#p29db0b5e6d)" d="M 102.6 304.128 
L 615.6 304.128 
" style="fill:none;stroke:#000000;stroke-dasharray:1.5,2.475;stroke-dashoffset:0;stroke-width:1.5;"/>
   </g>
  </g>
 </g>
 <defs>
  <clipPath id="p29db0b5e6d">
   <rect height="315.36" width="513" x="102.6" y="51.84"/>
  </clipPath>
 </defs>
</svg>
