<svg width="800" height="800" viewBox="0 0 800 800" fill="none" xmlns="http://www.w3.org/2000/svg">
<g clip-path="url(#clip0)">
<rect width="800" height="800" fill="white"/>
<path d="M76.5392 181L524.113 181V278.5L131.23 278.5H129.23V280.5V623.326C129.23 638.081 133.144 649.679 141.264 657.794C149.389 665.916 161.14 669.821 176.171 669.821H571V776H175.323C160.292 776 143.81 773.356 125.864 768.031C108.033 762.74 91.4443 754.106 76.0921 742.113C61.0684 729.873 48.3769 714.136 38.0333 694.859C28.0443 675.438 23 651.621 23 623.326L23 234.513C23 227.139 24.3648 220.198 27.0857 213.671C29.8198 207.112 33.4995 201.393 38.1207 196.497C43.015 191.611 48.7234 187.807 55.262 185.084C61.7835 182.368 68.8686 181 76.5392 181ZM524.113 524.202H280.5H180.796L180.796 420.647H524.113V524.202Z" fill="#003688" fill-opacity="0.65" stroke="white" stroke-width="4"/>
<path d="M181 76.6399L181 525.028L278.67 525.028L278.67 131.43L278.67 129.43L280.67 129.43L624.068 129.43C638.847 129.43 650.463 133.351 658.591 141.484C666.726 149.624 670.637 161.394 670.637 176.452L670.637 572L777 572L777 175.602C777 160.544 774.352 144.032 769.018 126.053C763.717 108.188 755.069 91.5685 743.054 76.1877C730.794 61.1371 715.03 48.423 695.722 38.0609C676.268 28.0536 652.41 23 624.068 23L234.606 23.0001C227.219 23.0001 220.266 24.3674 213.727 27.0934C207.157 29.8326 201.429 33.5192 196.524 38.1491C191.629 43.0526 187.819 48.7717 185.091 55.3227C182.37 61.8565 181 68.9549 181 76.6399ZM524.782 525.028L524.782 181.082L421.048 181.082L421.048 525.028L524.782 525.028Z" fill="#880018" fill-opacity="0.65" stroke="white" stroke-width="4"/>
<path d="M76.5392 181L524.113 181V278.5L131.23 278.5H129.23V280.5V623.326C129.23 638.081 133.144 649.679 141.264 657.794C149.389 665.916 161.14 669.821 176.171 669.821H571V776H175.323C160.292 776 143.81 773.356 125.864 768.031C108.033 762.74 91.4443 754.106 76.0921 742.113C61.0684 729.873 48.3769 714.135 38.0333 694.859C28.0443 675.438 23 651.621 23 623.326L23 234.513C23 227.139 24.3648 220.198 27.0857 213.671C29.8198 207.112 33.4995 201.393 38.1207 196.497C43.015 191.611 48.7234 187.807 55.262 185.084C61.7835 182.368 68.8686 181 76.5392 181ZM524.113 524.202H280.5H180.796L180.796 420.647H524.113V524.202Z" stroke="white" stroke-width="4"/>
</g>
<defs>
<clipPath id="clip0">
<rect width="800" height="800" fill="white"/>
</clipPath>
</defs>
</svg>
