<?xml version="1.0" encoding="UTF-8"?>
<svg xmlns="http://www.w3.org/2000/svg"
     xmlns:xlink="http://www.w3.org/1999/xlink"
     xmlns:gadfly="http://www.gadflyjl.org/ns"
     version="1.2"
     width="101.6mm" height="88.9mm" viewBox="0 0 101.6 88.9"
     stroke="none"
     fill="#000000"
     stroke-width="0.3"
     font-size="3.88"
>
<defs>
  <marker id="arrow" markerWidth="15" markerHeight="7" refX="5" refY="3.5" orient="auto" markerUnits="strokeWidth">
    <path d="M0,0 L15,3.5 L0,7 z" stroke="context-stroke" fill="context-stroke"/>
  </marker>
</defs>
<g class="plotroot xscalable yscalable" id="img-aedf5d9a-1">
  <g clip-path="url(#img-aedf5d9a-2)">
    <g id="img-aedf5d9a-3">
      <g pointer-events="visible" fill="#000000" fill-opacity="0.000" stroke="#000000" stroke-opacity="0.000" class="guide background" id="img-aedf5d9a-4">
        <g transform="translate(50.8,44.45)" id="img-aedf5d9a-5">
          <path d="M-45.8,-39.45 L 45.8 -39.45 45.8 39.45 -45.8 39.45 z" class="primitive"/>
        </g>
      </g>
      <g class="plotpanel" id="img-aedf5d9a-6">
        <metadata>
          <boundingbox value="5.0mm 5.0mm 91.6mm 78.89999999999999mm"/>
          <unitbox value="-0.012374429223744295 2.8974277924206473 1.0247488584474886 -2.97278346563212"/>
        </metadata>
        <g class="geometry" id="img-aedf5d9a-7">
          <g stroke-width="0.3" id="img-aedf5d9a-8">
            <g class="color_RGBA{Float32}(0.827451f0,0.827451f0,0.827451f0,1.0f0)" fill-opacity="1" stroke="#FFFFFF" fill="#D3D3D3" id="img-aedf5d9a-9">
              <g class="marker" id="img-aedf5d9a-10">
                <g transform="translate(35.6,36.78)" id="img-aedf5d9a-11">
                  <circle cx="0" cy="0" r="0.9" class="primitive"/>
                </g>
              </g>
            </g>
            <g class="color_RGBA{Float32}(0.827451f0,0.827451f0,0.827451f0,1.0f0)" fill-opacity="1" stroke="#FFFFFF" fill="#D3D3D3" id="img-aedf5d9a-12">
              <g class="marker" id="img-aedf5d9a-13">
                <g transform="translate(66,36.78)" id="img-aedf5d9a-14">
                  <circle cx="0" cy="0" r="0.9" class="primitive"/>
                </g>
              </g>
            </g>
          </g>
        </g>
        <g stroke-width="0.3" fill="#000000" fill-opacity="0.000" class="geometry" id="img-aedf5d9a-15">
          <g class="color_RGB{N0f8}(0.827,0.827,0.827)" stroke-dasharray="none" stroke="#D3D3D3" id="img-aedf5d9a-16">
            <g transform="translate(50.8,36.78)" id="img-aedf5d9a-17">
              <path fill="none" d="M-15.2,0 L 15.2 0" class="primitive"/>
            </g>
          </g>
        </g>
        <g class="geometry" id="img-aedf5d9a-18">
          <g stroke-width="0.3" id="img-aedf5d9a-19">
            <g class="color_RGBA{Float32}(0.827451f0,0.827451f0,0.827451f0,1.0f0)" fill-opacity="1" stroke="#FFFFFF" fill="#D3D3D3" id="img-aedf5d9a-20">
              <g class="marker" id="img-aedf5d9a-21">
                <g transform="translate(33.82,42.09)" id="img-aedf5d9a-22">
                  <circle cx="0" cy="0" r="0.9" class="primitive"/>
                </g>
              </g>
            </g>
            <g class="color_RGBA{Float32}(0.827451f0,0.827451f0,0.827451f0,1.0f0)" fill-opacity="1" stroke="#FFFFFF" fill="#D3D3D3" id="img-aedf5d9a-23">
              <g class="marker" id="img-aedf5d9a-24">
                <g transform="translate(67.78,42.09)" id="img-aedf5d9a-25">
                  <circle cx="0" cy="0" r="0.9" class="primitive"/>
                </g>
              </g>
            </g>
          </g>
        </g>
        <g stroke-width="0.3" fill="#000000" fill-opacity="0.000" class="geometry" id="img-aedf5d9a-26">
          <g class="color_RGB{N0f8}(0.827,0.827,0.827)" stroke-dasharray="none" stroke="#D3D3D3" id="img-aedf5d9a-27">
            <g transform="translate(50.8,42.09)" id="img-aedf5d9a-28">
              <path fill="none" d="M-16.98,0 L 16.98 0" class="primitive"/>
            </g>
          </g>
        </g>
        <g class="geometry" id="img-aedf5d9a-29">
          <g stroke-width="0.3" id="img-aedf5d9a-30">
            <g class="color_RGBA{Float32}(0.827451f0,0.827451f0,0.827451f0,1.0f0)" fill-opacity="1" stroke="#FFFFFF" fill="#D3D3D3" id="img-aedf5d9a-31">
              <g class="marker" id="img-aedf5d9a-32">
                <g transform="translate(34.71,39.43)" id="img-aedf5d9a-33">
                  <circle cx="0" cy="0" r="0.9" class="primitive"/>
                </g>
              </g>
            </g>
            <g class="color_RGBA{Float32}(0.827451f0,0.827451f0,0.827451f0,1.0f0)" fill-opacity="1" stroke="#FFFFFF" fill="#D3D3D3" id="img-aedf5d9a-34">
              <g class="marker" id="img-aedf5d9a-35">
                <g transform="translate(66.89,39.43)" id="img-aedf5d9a-36">
                  <circle cx="0" cy="0" r="0.9" class="primitive"/>
                </g>
              </g>
            </g>
          </g>
        </g>
        <g stroke-width="0.3" fill="#000000" fill-opacity="0.000" class="geometry" id="img-aedf5d9a-37">
          <g class="color_RGB{N0f8}(0.827,0.827,0.827)" stroke-dasharray="none" stroke="#D3D3D3" id="img-aedf5d9a-38">
            <g transform="translate(50.8,39.43)" id="img-aedf5d9a-39">
              <path fill="none" d="M-16.09,0 L 16.09 0" class="primitive"/>
            </g>
          </g>
        </g>
        <g stroke-width="0.3" fill="#000000" fill-opacity="0.000" class="geometry" id="img-aedf5d9a-40">
          <g class="color_RGB{N0f8}(0.58,0.82,0.749)" stroke-dasharray="none" stroke="#94D1BF" id="img-aedf5d9a-41">
            <g transform="translate(50.8,55.09)" id="img-aedf5d9a-42">
              <path fill="none" d="M-43.8,26.81 L -42.91 26.81 -42.01 26.81 -41.12 26.81 -40.22 26.8 -39.33 26.79 -38.44 26.76 -37.54 26.72 -36.65 26.65 -35.76 26.54 -34.86 26.38 -33.97 26.15 -33.07 25.85 -32.18 25.46 -31.29 24.96 -30.39 24.34 -29.5 23.59 -28.6 22.68 -27.71 21.61 -26.82 20.38 -25.92 18.96 -25.03 17.35 -24.13 15.56 -23.24 13.58 -22.35 11.42 -21.45 9.07 -20.56 6.55 -19.67 3.87 -18.77 1.05 -17.88 -1.9 -16.98 -4.96 -16.09 -8.1 -15.2 -11.3 -14.3 -14.54 -13.41 -17.78 -12.51 -21 -11.62 -24.16 -10.73 -27.24 -9.83 -30.21 -8.94 -33.03 -8.04 -35.68 -7.15 -38.13 -6.26 -40.36 -5.36 -42.35 -4.47 -44.06 -3.58 -45.49 -2.68 -46.62 -1.79 -47.43 -0.89 -47.93 -0 -48.09 0.89 -47.93 1.79 -47.43 2.68 -46.62 3.58 -45.49 4.47 -44.06 5.36 -42.35 6.26 -40.36 7.15 -38.13 8.04 -35.68 8.94 -33.03 9.83 -30.21 10.73 -27.24 11.62 -24.16 12.51 -21 13.41 -17.78 14.3 -14.54 15.2 -11.3 16.09 -8.1 16.98 -4.96 17.88 -1.9 18.77 1.05 19.67 3.87 20.56 6.55 21.45 9.07 22.35 11.42 23.24 13.58 24.13 15.56 25.03 17.35 25.92 18.96 26.82 20.38 27.71 21.61 28.6 22.68 29.5 23.59 30.39 24.34 31.29 24.96 32.18 25.46 33.07 25.85 33.97 26.15 34.86 26.38 35.76 26.54 36.65 26.65 37.54 26.72 38.44 26.76 39.33 26.79 40.22 26.8 41.12 26.81 42.01 26.81 42.91 26.81 43.8 26.81" class="primitive"/>
            </g>
          </g>
        </g>
        <g stroke-width="0.3" fill="#000000" fill-opacity="0.000" class="geometry" id="img-aedf5d9a-43">
          <g class="color_RGB{N0f8}(0.451,0.753,0.769)" stroke-dasharray="none" stroke="#73C0C4" id="img-aedf5d9a-44">
            <g transform="translate(50.8,55.09)" id="img-aedf5d9a-45">
              <path fill="none" d="M-43.8,26.81 L -42.91 26.81 -42.01 26.81 -41.12 26.8 -40.22 26.79 -39.33 26.77 -38.44 26.72 -37.54 26.65 -36.65 26.54 -35.76 26.37 -34.86 26.15 -33.97 25.84 -33.07 25.45 -32.18 24.95 -31.29 24.33 -30.39 23.58 -29.5 22.69 -28.6 21.65 -27.71 20.46 -26.82 19.09 -25.92 17.56 -25.03 15.86 -24.13 13.99 -23.24 11.96 -22.35 9.76 -21.45 7.41 -20.56 4.92 -19.67 2.31 -18.77 -0.42 -17.88 -3.24 -16.98 -6.13 -16.09 -9.08 -15.2 -12.06 -14.3 -15.05 -13.41 -18.03 -12.51 -20.96 -11.62 -23.82 -10.73 -26.6 -9.83 -29.25 -8.94 -31.77 -8.04 -34.13 -7.15 -36.3 -6.26 -38.27 -5.36 -40.01 -4.47 -41.52 -3.58 -42.77 -2.68 -43.75 -1.79 -44.46 -0.89 -44.89 -0 -45.04 0.89 -44.89 1.79 -44.46 2.68 -43.75 3.58 -42.77 4.47 -41.52 5.36 -40.01 6.26 -38.27 7.15 -36.3 8.04 -34.13 8.94 -31.77 9.83 -29.25 10.73 -26.6 11.62 -23.82 12.51 -20.96 13.41 -18.03 14.3 -15.05 15.2 -12.06 16.09 -9.08 16.98 -6.13 17.88 -3.24 18.77 -0.42 19.67 2.31 20.56 4.92 21.45 7.41 22.35 9.76 23.24 11.96 24.13 13.99 25.03 15.86 25.92 17.56 26.82 19.09 27.71 20.46 28.6 21.65 29.5 22.69 30.39 23.58 31.29 24.33 32.18 24.95 33.07 25.45 33.97 25.84 34.86 26.15 35.76 26.37 36.65 26.54 37.54 26.65 38.44 26.72 39.33 26.77 40.22 26.79 41.12 26.8 42.01 26.81 42.91 26.81 43.8 26.81" class="primitive"/>
            </g>
          </g>
        </g>
        <g stroke-width="0.3" fill="#000000" fill-opacity="0.000" class="geometry" id="img-aedf5d9a-46">
          <g class="color_RGB{N0f8}(0.325,0.686,0.788)" stroke-dasharray="none" stroke="#53AFC9" id="img-aedf5d9a-47">
            <g transform="translate(50.8,55.09)" id="img-aedf5d9a-48">
              <path fill="none" d="M-43.8,26.81 L -42.91 26.81 -42.01 26.8 -41.12 26.79 -40.22 26.77 -39.33 26.72 -38.44 26.65 -37.54 26.53 -36.65 26.36 -35.76 26.12 -34.86 25.8 -33.97 25.39 -33.07 24.87 -32.18 24.25 -31.29 23.49 -30.39 22.6 -29.5 21.57 -28.6 20.4 -27.71 19.07 -26.82 17.59 -25.92 15.96 -25.03 14.18 -24.13 12.26 -23.24 10.19 -22.35 8 -21.45 5.68 -20.56 3.26 -19.67 0.74 -18.77 -1.86 -17.88 -4.52 -16.98 -7.23 -16.09 -9.96 -15.2 -12.69 -14.3 -15.42 -13.41 -18.1 -12.51 -20.74 -11.62 -23.3 -10.73 -25.76 -9.83 -28.11 -8.94 -30.33 -8.04 -32.39 -7.15 -34.29 -6.26 -36 -5.36 -37.51 -4.47 -38.81 -3.58 -39.89 -2.68 -40.74 -1.79 -41.36 -0.89 -41.73 -0 -41.85 0.89 -41.73 1.79 -41.36 2.68 -40.74 3.58 -39.89 4.47 -38.81 5.36 -37.51 6.26 -36 7.15 -34.29 8.04 -32.39 8.94 -30.33 9.83 -28.11 10.73 -25.76 11.62 -23.3 12.51 -20.74 13.41 -18.1 14.3 -15.42 15.2 -12.69 16.09 -9.96 16.98 -7.23 17.88 -4.52 18.77 -1.86 19.67 0.74 20.56 3.26 21.45 5.68 22.35 8 23.24 10.19 24.13 12.26 25.03 14.18 25.92 15.96 26.82 17.59 27.71 19.07 28.6 20.4 29.5 21.57 30.39 22.6 31.29 23.49 32.18 24.25 33.07 24.87 33.97 25.39 34.86 25.8 35.76 26.12 36.65 26.36 37.54 26.53 38.44 26.65 39.33 26.72 40.22 26.77 41.12 26.79 42.01 26.8 42.91 26.81 43.8 26.81" class="primitive"/>
            </g>
          </g>
        </g>
        <g stroke-width="0.3" fill="#000000" fill-opacity="0.000" class="geometry" id="img-aedf5d9a-49">
          <g class="color_RGB{N0f8}(0.251,0.584,0.714)" stroke-dasharray="none" stroke="#4095B6" id="img-aedf5d9a-50">
            <g transform="translate(50.8,55.09)" id="img-aedf5d9a-51">
              <path fill="none" d="M-43.8,26.81 L -42.91 26.81 -42.01 26.8 -41.12 26.77 -40.22 26.72 -39.33 26.64 -38.44 26.51 -37.54 26.32 -36.65 26.06 -35.76 25.71 -34.86 25.27 -33.97 24.73 -33.07 24.07 -32.18 23.3 -31.29 22.39 -30.39 21.35 -29.5 20.18 -28.6 18.87 -27.71 17.43 -26.82 15.85 -25.92 14.14 -25.03 12.31 -24.13 10.36 -23.24 8.3 -22.35 6.14 -21.45 3.9 -20.56 1.57 -19.67 -0.81 -18.77 -3.24 -17.88 -5.71 -16.98 -8.19 -16.09 -10.68 -15.2 -13.15 -14.3 -15.59 -13.41 -17.98 -12.51 -20.31 -11.62 -22.56 -10.73 -24.71 -9.83 -26.75 -8.94 -28.67 -8.04 -30.44 -7.15 -32.07 -6.26 -33.53 -5.36 -34.82 -4.47 -35.93 -3.58 -36.85 -2.68 -37.57 -1.79 -38.09 -0.89 -38.4 -0 -38.51 0.89 -38.4 1.79 -38.09 2.68 -37.57 3.58 -36.85 4.47 -35.93 5.36 -34.82 6.26 -33.53 7.15 -32.07 8.04 -30.44 8.94 -28.67 9.83 -26.75 10.73 -24.71 11.62 -22.56 12.51 -20.31 13.41 -17.98 14.3 -15.59 15.2 -13.15 16.09 -10.68 16.98 -8.19 17.88 -5.71 18.77 -3.24 19.67 -0.81 20.56 1.57 21.45 3.9 22.35 6.14 23.24 8.3 24.13 10.36 25.03 12.31 25.92 14.14 26.82 15.85 27.71 17.43 28.6 18.87 29.5 20.18 30.39 21.35 31.29 22.39 32.18 23.3 33.07 24.07 33.97 24.73 34.86 25.27 35.76 25.71 36.65 26.06 37.54 26.32 38.44 26.51 39.33 26.64 40.22 26.72 41.12 26.77 42.01 26.8 42.91 26.81 43.8 26.81" class="primitive"/>
            </g>
          </g>
        </g>
        <g stroke-width="0.3" fill="#000000" fill-opacity="0.000" class="geometry" id="img-aedf5d9a-52">
          <g class="color_RGB{N0f8}(0.235,0.459,0.545)" stroke-dasharray="none" stroke="#3C758B" id="img-aedf5d9a-53">
            <g transform="translate(50.8,55.09)" id="img-aedf5d9a-54">
              <path fill="none" d="M-43.8,26.81 L -42.91 26.8 -42.01 26.78 -41.12 26.72 -40.22 26.62 -39.33 26.47 -38.44 26.25 -37.54 25.95 -36.65 25.57 -35.76 25.08 -34.86 24.49 -33.97 23.78 -33.07 22.96 -32.18 22.02 -31.29 20.96 -30.39 19.77 -29.5 18.46 -28.6 17.04 -27.71 15.5 -26.82 13.85 -25.92 12.1 -25.03 10.25 -24.13 8.32 -23.24 6.31 -22.35 4.23 -21.45 2.1 -20.56 -0.08 -19.67 -2.29 -18.77 -4.52 -17.88 -6.76 -16.98 -8.99 -16.09 -11.21 -15.2 -13.39 -14.3 -15.53 -13.41 -17.61 -12.51 -19.62 -11.62 -21.56 -10.73 -23.4 -9.83 -25.13 -8.94 -26.76 -8.04 -28.26 -7.15 -29.62 -6.26 -30.85 -5.36 -31.92 -4.47 -32.85 -3.58 -33.61 -2.68 -34.21 -1.79 -34.64 -0.89 -34.9 -0 -34.98 0.89 -34.9 1.79 -34.64 2.68 -34.21 3.58 -33.61 4.47 -32.85 5.36 -31.92 6.26 -30.85 7.15 -29.62 8.04 -28.26 8.94 -26.76 9.83 -25.13 10.73 -23.4 11.62 -21.56 12.51 -19.62 13.41 -17.61 14.3 -15.53 15.2 -13.39 16.09 -11.21 16.98 -8.99 17.88 -6.76 18.77 -4.52 19.67 -2.29 20.56 -0.08 21.45 2.1 22.35 4.23 23.24 6.31 24.13 8.32 25.03 10.25 25.92 12.1 26.82 13.85 27.71 15.5 28.6 17.04 29.5 18.46 30.39 19.77 31.29 20.96 32.18 22.02 33.07 22.96 33.97 23.78 34.86 24.49 35.76 25.08 36.65 25.57 37.54 25.95 38.44 26.25 39.33 26.47 40.22 26.62 41.12 26.72 42.01 26.78 42.91 26.8 43.8 26.81" class="primitive"/>
            </g>
          </g>
        </g>
        <g stroke-width="0.3" fill="#000000" fill-opacity="0.000" class="geometry" id="img-aedf5d9a-55">
          <g class="color_RGB{N0f8}(0.216,0.325,0.369)" stroke-dasharray="none" stroke="#37535E" id="img-aedf5d9a-56">
            <g transform="translate(50.8,55.09)" id="img-aedf5d9a-57">
              <path fill="none" d="M-43.8,26.81 L -42.91 26.78 -42.01 26.72 -41.12 26.6 -40.22 26.41 -39.33 26.14 -38.44 25.78 -37.54 25.33 -36.65 24.77 -35.76 24.1 -34.86 23.32 -33.97 22.43 -33.07 21.43 -32.18 20.32 -31.29 19.11 -30.39 17.79 -29.5 16.37 -28.6 14.86 -27.71 13.26 -26.82 11.59 -25.92 9.84 -25.03 8.03 -24.13 6.17 -23.24 4.26 -22.35 2.32 -21.45 0.34 -20.56 -1.64 -19.67 -3.64 -18.77 -5.63 -17.88 -7.6 -16.98 -9.56 -16.09 -11.48 -15.2 -13.35 -14.3 -15.18 -13.41 -16.94 -12.51 -18.64 -11.62 -20.25 -10.73 -21.78 -9.83 -23.22 -8.94 -24.56 -8.04 -25.79 -7.15 -26.9 -6.26 -27.9 -5.36 -28.78 -4.47 -29.52 -3.58 -30.14 -2.68 -30.62 -1.79 -30.97 -0.89 -31.18 -0 -31.25 0.89 -31.18 1.79 -30.97 2.68 -30.62 3.58 -30.14 4.47 -29.52 5.36 -28.78 6.26 -27.9 7.15 -26.9 8.04 -25.79 8.94 -24.56 9.83 -23.22 10.73 -21.78 11.62 -20.25 12.51 -18.64 13.41 -16.94 14.3 -15.18 15.2 -13.35 16.09 -11.48 16.98 -9.56 17.88 -7.6 18.77 -5.63 19.67 -3.64 20.56 -1.64 21.45 0.34 22.35 2.32 23.24 4.26 24.13 6.17 25.03 8.03 25.92 9.84 26.82 11.59 27.71 13.26 28.6 14.86 29.5 16.37 30.39 17.79 31.29 19.11 32.18 20.32 33.07 21.43 33.97 22.43 34.86 23.32 35.76 24.1 36.65 24.77 37.54 25.33 38.44 25.78 39.33 26.14 40.22 26.41 41.12 26.6 42.01 26.72 42.91 26.78 43.8 26.81" class="primitive"/>
            </g>
          </g>
        </g>
      </g>
    </g>
  </g>
</g>
<defs>
  <clipPath id="img-aedf5d9a-2">
    <path d="M5,5 L 96.6 5 96.6 83.9 5 83.9" />
  </clipPath>
</defs>
</svg>
